<svg width="32" height="32" viewBox="0 0 32 32" fill="none" xmlns="http://www.w3.org/2000/svg">
<path d="M15.7771 31.5844C7.06682 31.5844 0 24.5108 0 15.7922C0 7.07358 7.06682 0 15.7771 0C24.4873 0 31.5542 7.07358 31.5542 15.7922C31.5542 24.5108 24.4873 31.5844 15.7771 31.5844ZM15.7771 1.37085C7.83376 1.37085 1.36954 7.84125 1.36954 15.7922C1.36954 23.7431 7.83376 30.2135 15.7771 30.2135C23.7204 30.2135 30.1846 23.7431 30.1846 15.7922C30.1846 7.84125 23.7204 1.37085 15.7771 1.37085Z" fill="#FAC36A"/>
<path d="M4.87549 16.5055C4.49202 16.5055 4.16333 16.1765 4.16333 15.7926C4.16333 9.43188 9.36757 4.22266 15.7222 4.22266C16.1057 4.22266 16.4344 4.55165 16.4344 4.93549C16.4344 5.31933 16.1057 5.64833 15.7222 5.64833C10.1345 5.64833 5.53287 10.1995 5.53287 15.8474C5.58765 16.1765 5.25896 16.5055 4.87549 16.5055Z" fill="#FAC36A"/>
<path d="M15.7771 27.363C15.3936 27.363 15.0649 27.034 15.0649 26.6502C15.0649 26.2664 15.3936 25.9374 15.7771 25.9374C21.3648 25.9374 25.9665 21.3862 25.9665 15.7383C25.9665 15.3544 26.2952 15.0254 26.6786 15.0254C27.0621 15.0254 27.3908 15.3544 27.3908 15.7383C27.336 22.1538 22.1318 27.363 15.7771 27.363Z" fill="#FAC36A"/>
</svg>
