<svg width="72" height="69" viewBox="0 0 72 69" fill="none" xmlns="http://www.w3.org/2000/svg">
<path d="M40.6907 20.6232C47.5219 -3.48734 -15.7718 -10.3642 21.7627 58.6482C99.4494 47.0547 55.8382 0.631096 40.6907 20.6232Z" fill="#FF8095"/>
<path d="M12.9711 21.412C12.8495 21.3417 12.7794 21.2153 12.7842 21.0748C12.9538 13.4276 17.8369 9.86053 20.7297 8.41894C23.1263 7.22542 25.6393 6.73905 26.1958 7.14661C26.3735 7.26841 26.3827 7.48383 26.2609 7.66175C26.1485 7.80689 25.9566 7.85835 25.7695 7.76932C25.3438 7.64746 22.2881 8.0494 19.2498 10.1231C16.6936 11.8739 13.6216 15.1792 13.4861 21.0984C13.4625 21.3044 13.3173 21.4402 13.1021 21.4495C13.0694 21.4401 13.0366 21.4308 12.9711 21.412Z" fill="#4E3658"/>
<path d="M24.6942 55.5864C24.6053 55.5255 24.5258 55.4318 24.5212 55.3241C24.4699 55.1321 24.6011 54.9214 24.8163 54.9121C24.9661 54.884 38.2006 52.2182 42.8248 50.6694C43.0167 50.6179 43.2038 50.7069 43.2878 50.9083C43.3392 51.1003 43.2501 51.2876 43.0488 51.3719C38.3826 52.9441 25.0825 55.5912 24.9328 55.6192C24.8579 55.6333 24.7597 55.6051 24.6942 55.5864Z" fill="#4E3658"/>
<path d="M42.3123 23.2507C42.2795 23.2413 42.2234 23.1898 42.2001 23.1477C42.0645 23.0025 42.0974 22.7636 42.2426 22.6279C42.3268 22.5811 44.1294 21.1111 46.6009 19.9035C49.9805 18.2467 52.821 17.854 55.057 18.7069C55.2534 18.7632 55.3281 18.9973 55.2812 19.1612C55.1922 19.3485 54.9909 19.4327 54.8272 19.3859C49.9062 17.5161 42.8037 23.1431 42.7194 23.1899C42.5836 23.2929 42.4339 23.321 42.3123 23.2507Z" fill="#4E3658"/>
<path d="M60.9169 28.683C60.1685 28.3269 59.8697 27.3902 60.2587 26.6504C60.6148 25.9013 61.5509 25.6018 62.2899 25.9907C63.0383 26.3468 63.337 27.2834 62.9481 28.0232C62.5685 28.7303 61.6652 29.0391 60.9169 28.683ZM61.9291 26.6321C61.5549 26.4541 61.0542 26.5945 60.8761 26.969C60.698 27.3436 60.838 27.8447 61.2121 28.0228C61.5863 28.2008 62.0871 28.0605 62.2652 27.6859C62.4854 27.2879 62.3033 26.8102 61.9291 26.6321Z" fill="#4E3658"/>
</svg>
