<svg width="1440" height="2078" viewBox="0 0 1440 2078" fill="none" xmlns="http://www.w3.org/2000/svg">
<path d="M555.437 1449.27C586.554 1461.53 620.449 1463.65 651.976 1456.2C668.396 1452.33 676.581 1446.42 688.502 1436.49C700.604 1426.41 711.627 1421.45 727.956 1423.79C743.86 1426.07 758.975 1433.38 774.708 1436.93C801.48 1443.04 828.755 1438.14 855.117 1432.57C889.63 1425.33 923.856 1416.95 957.836 1407.56C978.608 1401.79 999.387 1395.58 1018.76 1385.9C1041.83 1374.41 1062.42 1358.23 1083.77 1343.56C1110.14 1325.46 1138.02 1309.43 1161.31 1287.03C1202.35 1247.64 1226.79 1189 1227.48 1128.43C1228.17 1067.87 1205.02 1006.25 1164.91 961.667C1162 958.433 1157.38 955.056 1154.23 957.687C1152.8 958.835 1152.29 960.8 1151.8 962.662C1144.3 992.683 1153.78 1026.09 1148.53 1057.81C1143.25 1089.6 1131.53 1119.81 1115 1146.15C1082.54 1197.93 1033.2 1235.05 979.85 1260.17C919.84 1288.4 850.436 1302.34 786.142 1280.18C552.844 1199.77 591.243 834.426 539.159 655.244C436.814 303.181 33.5875 168.31 -140.562 331.73C-172.428 361.631 -195.783 401.053 -212.086 443.394C-234.931 502.757 -240.696 581.195 -195.312 626.902C-98.8832 724.043 -50.2495 458.393 83.9906 624.798C136.301 689.62 25.6006 832.81 27.2632 954.629C28.1421 1018.42 57.2258 1082.55 104.105 1123.94C223.077 1229.05 310.271 1135.79 371.442 1161.45C469.425 1202.74 390.25 1384.16 555.437 1449.27Z" fill="#E4E4FF"/>
<path d="M1502.18 1932.06C1519.27 1935.99 1537 1934.45 1552.76 1928.12C1560.98 1924.84 1564.76 1921.14 1570.16 1915.06C1575.65 1908.89 1580.98 1905.46 1589.62 1905.4C1598.05 1905.34 1606.45 1907.95 1614.89 1908.56C1629.24 1909.64 1643 1904.97 1656.23 1900.03C1673.55 1893.59 1690.64 1886.57 1707.53 1879.05C1717.84 1874.44 1728.13 1869.6 1737.42 1863.07C1748.48 1855.32 1757.89 1845.32 1767.81 1836.05C1780.08 1824.61 1793.28 1814.13 1803.6 1800.7C1821.81 1777.08 1829.9 1744.77 1825.53 1713.33C1821.17 1681.88 1804.36 1651.74 1780.09 1631.76C1778.33 1630.31 1775.67 1628.92 1774.24 1630.53C1773.6 1631.23 1773.48 1632.29 1773.37 1633.3C1771.83 1649.44 1779.35 1666.02 1779.1 1682.88C1778.84 1699.76 1775.12 1716.34 1768.61 1731.28C1755.82 1760.66 1733.14 1783.75 1707.44 1800.93C1678.53 1820.24 1643.64 1832.89 1608.59 1826.42C1481.38 1802.93 1472.79 1610.54 1431.81 1521.72C1351.3 1347.19 1131.75 1308.73 1054.22 1407.03C1040.03 1425.01 1031 1447.27 1025.85 1470.49C1018.64 1503.05 1021.77 1544.16 1048.86 1564.31C1106.42 1607.15 1110.91 1465.64 1193.48 1541.44C1225.65 1570.96 1179.44 1653.82 1189.8 1716.84C1195.23 1749.84 1215.31 1780.82 1242.84 1798.62C1312.71 1843.83 1350.64 1788.68 1384.35 1797.21C1438.36 1810.97 1411.47 1911.19 1502.18 1932.06Z" fill="#E4E4FF"/>
</svg>
