<svg width="109" height="106" viewBox="0 0 109 106" fill="none" xmlns="http://www.w3.org/2000/svg">
<path d="M54.589 34.587C39.9247 -2.31307 -46.2601 50.1271 67.3953 100.612C153.896 11.1376 54.3688 -5.12008 54.589 34.587Z" fill="#FAC36A"/>
<path d="M24.8551 40.6533C22.0865 41.2148 19.3658 39.3785 18.8498 36.618C18.2899 33.8473 20.1258 31.1235 22.8842 30.6059C25.6527 30.0444 28.3734 31.8807 28.8894 34.6412C29.4493 37.4119 27.6134 40.1357 24.8551 40.6533ZM23.1324 31.7291C20.996 32.1595 19.5869 34.2412 19.9619 36.413C20.391 38.5511 22.4704 39.9605 24.6405 39.5843C26.7769 39.1539 28.186 37.0721 27.811 34.9003C27.3921 32.7183 25.2688 31.2987 23.1324 31.7291Z" fill="#F5EAE7"/>
<path d="M67.252 95.2516C67.0998 95.309 66.9242 95.2682 66.7689 95.1394C66.5361 94.9464 66.486 94.5641 66.7229 94.3412C66.9057 94.152 84.1455 73.9267 90.8064 56.8038C90.9218 56.5063 91.2363 56.3477 91.5335 56.463C91.8307 56.5784 91.9891 56.8931 91.8737 57.1906C88.3819 66.2474 81.9387 76.0548 77.2039 82.6918C72.0626 89.883 67.6748 95.0255 67.6207 95.0593C67.5022 95.1707 67.3602 95.1841 67.252 95.2516Z" fill="#F5EAE7"/>
<path d="M33.6604 73.0887C33.5184 73.102 33.3765 73.1154 33.2212 72.9867C24.2521 66.9659 19.7531 61.4274 17.5183 57.8971C15.0914 53.9979 14.7879 51.5184 14.7644 51.4203C14.748 51.0922 14.9512 50.8151 15.279 50.7986C15.6069 50.7821 15.8836 50.9853 15.9 51.3134C15.8898 51.3574 16.18 53.6948 18.516 57.3876C20.6834 60.8095 25.0915 66.1417 33.8073 72.0573C34.0943 72.2166 34.1444 72.5988 33.9514 72.832C33.9106 73.0078 33.8023 73.0753 33.6604 73.0887Z" fill="#F5EAE7"/>
<path d="M93.2046 27.943C93.0086 27.9901 92.7992 27.8951 92.644 27.7664C88.2389 22.6203 80.9807 20.1934 73.2878 21.2328C68.6504 21.8699 64.7239 23.8303 63.71 26.0039C63.5947 26.3013 63.2464 26.4058 62.9492 26.2904C62.652 26.1751 62.5478 25.8266 62.6632 25.5291C63.8568 22.9804 67.9661 20.8308 73.1274 20.13C81.2124 18.9964 88.8015 21.5928 93.5068 27.0403C93.7295 27.2773 93.6918 27.6392 93.4548 27.8621C93.4007 27.8959 93.3027 27.9194 93.2046 27.943Z" fill="#F5EAE7"/>
</svg>
