<svg width="1239" height="1314" viewBox="0 0 1239 1314" fill="none" xmlns="http://www.w3.org/2000/svg">
<path d="M1482.12 572.568C1502.55 543.649 1514.02 508.739 1515.62 473.404C1516.47 455.005 1513.07 444.626 1506.85 429.105C1500.52 413.349 1498.83 400.281 1505.62 383.864C1512.23 367.871 1523.45 354.237 1531.24 338.81C1544.54 312.58 1547.42 282.482 1549.4 253.139C1552.05 214.737 1553.51 176.289 1553.93 137.793C1554.17 114.252 1553.98 90.5699 1550.06 67.3121C1545.44 39.6198 1535.63 13.1068 1527.46 -13.7364C1517.42 -46.9012 1509.77 -81.0095 1494.72 -112.24C1468.3 -167.247 1418.76 -210.696 1360.78 -229.803C1302.79 -248.909 1237.16 -243.342 1183.19 -214.801C1179.27 -212.725 1174.75 -208.904 1176.4 -204.799C1177.1 -202.96 1178.85 -201.827 1180.5 -200.742C1207.25 -183.759 1241.98 -183.57 1270.99 -168.427C1300.06 -153.236 1325.82 -131.771 1346.53 -106.437C1387.25 -56.6666 1409.18 6.36063 1418.48 69.9539C1428.91 141.473 1423.01 218.511 1383.85 279.227C1241.74 499.539 901.478 348.34 714.88 348.576C348.243 349.048 106.586 731.079 215.148 963.374C235.01 1005.88 266.385 1042.35 302.525 1072.3C353.197 1114.29 426.939 1144.15 483.461 1110.42C603.582 1038.76 361.925 907.093 559.091 816.798C635.9 781.605 742.669 941.202 860.148 976.442C921.671 994.888 991.356 983.849 1044.15 947.24C1178.19 854.35 1112.84 734.57 1154.51 678.195C1221.41 587.947 1373.66 726.079 1482.12 572.568Z" fill="white"/>
<path d="M189.516 557.611C189.437 557.611 189.318 557.572 189.238 557.532C189 557.373 188.921 557.096 189.079 556.858C189.119 556.818 191.899 552.26 197.618 544.846C202.899 537.988 211.835 527.206 224.344 514.679C238.402 500.606 254.049 487.286 270.847 475.076C291.855 459.814 314.689 446.217 338.795 434.681C400.11 405.385 469.647 389.132 545.537 386.396C567.458 385.604 590.213 385.96 613.167 387.427C637.312 388.973 662.37 391.827 687.588 395.871C714.036 400.113 741.437 405.821 768.998 412.798C797.829 420.092 827.653 429.012 857.635 439.319C857.914 439.398 858.033 439.676 857.953 439.953C857.874 440.231 857.596 440.35 857.318 440.27C744.853 401.659 649.186 387.348 569.205 387.348C468.614 387.348 392.764 410.023 339.192 435.632C284.746 461.637 247.059 493.391 225.019 515.432C201.192 539.257 190.033 557.215 189.913 557.373C189.834 557.532 189.675 557.611 189.516 557.611Z" fill="white"/>
<path d="M1106.55 714C1086.82 714 1070.45 711.542 1060.13 709.481C1048.77 707.182 1042.1 704.882 1042.06 704.843C1041.78 704.763 1041.66 704.446 1041.74 704.208C1041.82 703.931 1042.14 703.812 1042.38 703.891C1042.46 703.931 1049.09 706.23 1060.37 708.49C1070.77 710.591 1087.41 713.049 1107.51 712.969C1142.93 712.811 1196.1 704.486 1248.21 665.636C1248.44 665.478 1248.76 665.518 1248.92 665.755C1249.08 665.993 1249.04 666.31 1248.8 666.469C1225.69 683.713 1200.47 696.438 1173.79 704.367C1152.42 710.67 1130.14 713.921 1107.47 714.04C1107.15 714 1106.83 714 1106.55 714Z" fill="white"/>
<path d="M692.749 435.327C693.955 435.601 752.078 519.223 765.664 530.957C779.249 542.692 849.972 470.475 849.972 470.475C849.972 470.475 805.599 392.94 792.78 374.79C780.016 356.64 771.525 362.727 771.525 362.727C771.525 362.727 691.544 435.053 692.749 435.327Z" fill="#FAC36A"/>
<path d="M737.999 284.753C724.632 270.057 700.693 252.949 680.04 262.6C655.991 273.896 648.595 319.134 635.064 324.617C631.23 326.207 626.902 325.988 622.739 325.714C566.697 321.656 509.067 279.598 496.741 348.689C491.975 375.174 497.891 404.236 515.586 424.47C533.335 444.758 563.465 454.519 588.664 445.087C594.307 443.004 600.169 439.933 605.975 441.413C610.741 442.62 614.193 446.513 617.753 449.858C628.874 460.386 644.268 467.24 659.442 465.376C674.671 463.566 688.915 451.722 690.942 436.533C692.804 422.167 684.368 406.594 690.832 393.653C695.981 383.344 712.69 393.543 725.29 390.582C752.68 384.276 770.539 320.559 737.999 284.753Z" fill="#4E3658"/>
<path d="M827.128 405.662C892.264 243.408 755.036 140.375 740.135 126.447C737.177 123.705 734.383 121.293 731.699 119.209C730.987 116.083 730.329 112.41 729.946 108.462C728.248 91.9565 714.388 87.515 713.073 61.2495C712.471 49.186 711.046 50.1182 708.143 51.8181C705.239 53.5179 703.377 59.769 702.939 74.958C700.802 69.3101 699.378 63.2784 698.83 57.8498C697.515 44.7993 695.981 45.896 692.914 47.9248C690.12 49.7892 688.476 55.7113 688.586 69.5294C686.942 65.0879 685.737 60.4818 685.135 56.2596C683.217 43.2639 681.793 44.4703 678.78 46.6088C675.822 48.8022 674.452 55.8209 675.657 72.655C675.712 73.2581 675.767 73.8613 675.822 74.4645C675.219 72.5453 674.671 70.6809 674.288 68.8166C671.494 55.9854 670.124 57.2466 667.331 59.6045C664.482 61.9623 663.606 69.0908 666.016 85.8151C667.933 99.2494 672.754 111.148 679.602 122.006C669.193 117.235 665.632 105.117 657.415 104.184C652.868 103.636 647.39 103.088 656.374 115.7C667.824 131.821 678.78 156.003 700.747 147.394C708.581 155.016 781.495 234.689 769.936 331.087C764.623 347.812 743.696 340.958 719.976 308.222C712.745 316.227 707.65 330.265 707.65 330.265C722.55 368.923 716.251 363.823 681.848 387.566C666.18 396.724 650.458 412.351 644.87 439.056C632.544 498.386 653.142 532.931 693.023 537.044C751.146 543.021 764.677 463.347 764.677 463.347L738.821 443.442C731.042 453.97 723.098 462.525 717.62 466.747C698.282 481.552 689.627 467.624 692.914 454.903C695.214 446.129 702.062 436.807 711.649 434.449C728.303 430.282 827.128 405.662 827.128 405.662Z" fill="#FAC36A"/>
<path d="M659.935 317.598C659.661 317.708 659.278 317.598 659.114 317.324C658.894 316.995 659.004 316.556 659.333 316.337L666.399 311.731C666.728 311.512 667.166 311.621 667.386 311.95C667.605 312.279 667.495 312.718 667.166 312.937L660.1 317.543C659.99 317.543 659.99 317.598 659.935 317.598Z" fill="#FF8095"/>
<path d="M664.92 296.597C663.332 303.835 663.879 312.17 666.947 320.285C673.959 338.874 691.38 349.512 705.897 344.028C720.414 338.545 726.549 319.024 719.537 300.435C719.154 299.393 718.716 298.406 718.277 297.419C707.759 300.655 680.149 304.109 664.92 296.597Z" fill="#FAC36A"/>
<path d="M680.862 328.675C684.203 334.103 690.996 336.626 697.187 334.268C703.377 331.965 706.828 325.549 705.733 319.298L680.862 328.675Z" fill="white"/>
<path d="M724.851 294.513C716.086 282.34 709.622 299.887 709.622 299.887L720.798 316.008C720.798 316.008 733.616 306.686 724.851 294.513Z" fill="#FAC36A"/>
<path d="M713.566 302.738C713.402 302.793 713.238 302.848 713.073 302.793C712.69 302.683 712.526 302.3 712.635 301.916C712.69 301.696 714.498 296.268 717.894 294.568C717.949 294.568 717.949 294.513 718.004 294.513C719.209 293.965 720.469 293.91 721.729 294.404C722.058 294.568 722.277 294.952 722.112 295.281C721.948 295.61 721.565 295.829 721.236 295.665C720.305 295.281 719.483 295.336 718.606 295.72C718.606 295.72 718.552 295.72 718.552 295.774C715.703 297.2 714.005 302.245 714.005 302.3C713.84 302.519 713.731 302.629 713.566 302.738Z" fill="#F5EAE7"/>
<path d="M720.852 308.77C720.852 308.77 720.798 308.77 720.798 308.825C720.414 308.935 720.031 308.77 719.921 308.386C719.264 306.412 716.47 304.383 715.484 303.78C715.155 303.561 715.046 303.177 715.265 302.848C715.484 302.519 715.867 302.409 716.196 302.629C716.36 302.738 720.25 305.151 721.236 307.948C721.345 308.222 721.181 308.606 720.852 308.77Z" fill="#F5EAE7"/>
<path d="M699.98 316.063C694.448 318.147 688.312 315.35 686.23 309.812C684.149 304.274 686.942 298.132 692.475 296.049C698.008 293.965 704.144 296.761 706.226 302.3C708.307 307.783 705.513 313.979 699.98 316.063ZM692.968 297.31C688.148 299.119 685.737 304.493 687.545 309.318C689.353 314.144 694.721 316.556 699.542 314.747C704.363 312.937 706.773 307.564 704.966 302.738C703.158 297.913 697.734 295.555 692.968 297.31Z" fill="#FF8095"/>
<path d="M673.192 326.152C667.659 328.236 661.524 325.44 659.442 319.901C657.36 314.363 660.154 308.222 665.687 306.138C671.22 304.054 677.356 306.851 679.437 312.389C681.519 317.872 678.725 324.069 673.192 326.152ZM666.18 307.399C661.36 309.209 658.949 314.582 660.757 319.408C662.565 324.233 667.933 326.646 672.754 324.836C677.575 323.027 679.985 317.653 678.177 312.828C676.37 308.002 671.001 305.59 666.18 307.399Z" fill="#FF8095"/>
<path d="M686.614 307.564L678.013 310.799C677.63 310.909 677.246 310.744 677.137 310.415C677.027 310.031 677.191 309.647 677.52 309.538L686.121 306.303C686.504 306.193 686.888 306.357 686.997 306.686C687.162 307.015 686.997 307.399 686.614 307.564Z" fill="#FF8095"/>
<path d="M704.527 300.6C704.254 300.709 703.925 300.6 703.706 300.326C703.487 299.997 703.541 299.558 703.87 299.339L717.401 289.798C717.73 289.578 718.168 289.633 718.387 289.962C718.606 290.291 718.552 290.73 718.223 290.949L704.692 300.49C704.637 300.545 704.582 300.545 704.527 300.6Z" fill="#FF8095"/>
<path d="M507.314 340.354C507.259 340.354 507.259 340.354 507.314 340.354C506.875 340.354 506.602 340.025 506.602 339.642C506.93 332.732 511.313 325.988 517.941 322.04C523.584 318.695 530.76 317.214 538.758 317.818C545.989 318.366 552.947 320.45 559.52 322.479C559.904 322.588 560.068 322.972 559.959 323.356C559.849 323.74 559.466 323.904 559.082 323.795C552.618 321.766 545.716 319.682 538.649 319.189C533.28 318.805 525.446 319.189 518.653 323.191C512.354 326.92 508.3 333.226 507.971 339.696C507.971 340.08 507.642 340.354 507.314 340.354Z" fill="#FF8095"/>
<path d="M665.906 292.594C665.523 292.594 665.194 292.265 665.194 291.881C665.194 283.053 669.084 274.334 675.657 268.467C677.629 266.712 679.437 265.616 681.245 265.067C681.629 264.958 682.012 265.177 682.122 265.561C682.231 265.945 682.012 266.329 681.629 266.438C679.985 266.932 678.396 267.864 676.589 269.509C670.289 275.102 666.564 283.492 666.564 291.881C666.618 292.265 666.29 292.594 665.906 292.594Z" fill="#FF8095"/>
<path d="M745.394 315.624C745.011 315.624 744.682 315.241 744.682 314.857C744.573 309.593 742.272 302.409 738.328 295.336C734.876 289.14 730.822 284.204 728.412 283.327C728.029 283.217 727.864 282.779 727.974 282.45C728.083 282.066 728.522 281.901 728.85 282.011C731.644 282.998 735.808 287.988 739.533 294.623C743.587 301.916 745.997 309.373 746.107 314.857C746.107 315.186 745.778 315.624 745.394 315.624Z" fill="#FF8095"/>
<path d="M708.581 124.363C708.307 124.363 708.033 124.144 707.979 123.815C707.979 123.76 706.993 117.345 707.157 110.161C707.431 100.401 709.622 93.9305 713.731 90.9695C714.005 90.7502 714.388 90.805 714.607 91.134C714.826 91.4082 714.772 91.792 714.443 92.0113C705.404 98.5366 709.129 123.376 709.184 123.651C709.239 123.98 709.019 124.309 708.691 124.363C708.636 124.363 708.636 124.363 708.581 124.363Z" fill="#4E3658"/>
<path d="M704.199 125.899C704.034 125.899 703.87 125.844 703.706 125.679C698.885 120.031 682.56 120.58 682.396 120.58C682.067 120.58 681.738 120.306 681.738 119.977C681.738 119.648 682.012 119.319 682.341 119.319C683.053 119.319 699.487 118.715 704.692 124.857C704.911 125.131 704.856 125.515 704.637 125.734C704.473 125.844 704.308 125.899 704.199 125.899Z" fill="#4E3658"/>
<path d="M706.773 90.9695C706.554 90.9695 706.28 90.805 706.171 90.5857C706.061 90.2567 703.103 82.8541 702.61 77.261C702.555 76.932 702.829 76.603 703.158 76.603C703.487 76.5482 703.815 76.8223 703.815 77.1513C704.308 82.5799 707.266 90.0373 707.321 90.0922C707.431 90.4212 707.321 90.7502 706.993 90.9147C706.938 90.9695 706.828 90.9695 706.773 90.9695Z" fill="#4E3658"/>
<path d="M694.283 95.5207C694.009 95.5207 693.79 95.3562 693.681 95.1369C693.462 94.5337 688.148 80.7704 688.148 71.9969C688.148 71.6679 688.422 71.3938 688.75 71.3938C689.079 71.3938 689.353 71.6679 689.353 71.9969C689.353 80.551 694.776 94.5337 694.831 94.6982C694.941 95.0272 694.776 95.3562 694.502 95.5207C694.448 95.5207 694.338 95.5207 694.283 95.5207Z" fill="#4E3658"/>
<path d="M682.724 99.7429C682.505 99.7429 682.341 99.6333 682.231 99.4688C677.082 91.9017 675.603 76.7127 675.493 76.0547C675.438 75.7257 675.712 75.3967 676.041 75.3967C676.37 75.3418 676.698 75.616 676.698 75.945C676.698 76.1095 678.232 91.463 683.217 98.7559C683.436 99.0301 683.327 99.4139 683.053 99.6333C682.998 99.6881 682.834 99.7429 682.724 99.7429Z" fill="#4E3658"/>
<path d="M718.003 168.45C717.839 168.45 717.73 168.395 717.62 168.285C717.346 168.066 717.291 167.682 717.51 167.408C717.565 167.353 723.591 160.005 730.987 152.877C741.012 143.226 748.681 138.565 753.831 138.949C754.159 138.949 754.433 139.278 754.378 139.607C754.378 139.936 754.05 140.21 753.721 140.156C742.272 139.223 718.716 167.847 718.497 168.176C718.387 168.395 718.168 168.45 718.003 168.45Z" fill="#4E3658"/>
<path d="M713.84 339.861C713.621 339.861 713.457 339.806 713.292 339.642C713.018 339.367 713.073 338.929 713.347 338.655C713.402 338.6 715.867 336.406 718.277 332.184C720.524 328.291 723.098 321.875 722.879 313.376C722.879 312.992 723.153 312.663 723.537 312.663C723.92 312.663 724.249 312.937 724.249 313.321C724.468 322.204 721.729 328.894 719.428 332.952C716.908 337.339 714.333 339.642 714.224 339.696C714.169 339.806 714.005 339.861 713.84 339.861Z" fill="#F5EAE7"/>
<path d="M780.4 395.024C781.988 346.77 660.538 363.22 762.596 474.862C902.398 417.232 799.464 350.718 780.4 395.024Z" fill="#FF8095"/>
<path d="M744.353 387.347C741.012 386.579 738.875 383.235 739.642 379.89C740.409 376.545 743.751 374.406 747.093 375.174C750.434 375.942 752.571 379.287 751.804 382.631C751.037 385.976 747.75 388.115 744.353 387.347ZM746.764 376.545C744.134 375.942 741.56 377.587 741.012 380.219C740.409 382.851 742.053 385.428 744.682 385.976C747.312 386.579 749.886 384.934 750.434 382.302C751.037 379.725 749.393 377.148 746.764 376.545Z" fill="#F5EAE7"/>
<path d="M765.116 468.776C764.896 468.721 764.732 468.611 764.623 468.392C764.458 468.063 764.623 467.624 764.951 467.46C765.225 467.295 794.314 453.203 809.982 437.356C810.256 437.082 810.694 437.082 810.968 437.356C811.242 437.63 811.242 438.069 810.968 438.343C802.696 446.732 790.808 454.519 782.262 459.618C773.059 465.102 765.663 468.666 765.609 468.721C765.39 468.776 765.225 468.83 765.116 468.776Z" fill="#F5EAE7"/>
<path d="M738.382 427.76C738.218 427.705 738.054 427.595 737.944 427.431C730.932 416.354 728.522 408.02 727.809 402.975C726.988 397.437 727.864 394.53 727.919 394.421C728.029 394.037 728.412 393.872 728.796 393.982C729.179 394.092 729.343 394.476 729.234 394.859C729.234 394.914 728.412 397.656 729.234 402.92C730.001 407.8 732.302 415.916 739.149 426.718C739.368 427.047 739.259 427.486 738.93 427.65C738.766 427.76 738.602 427.815 738.382 427.76Z" fill="#F5EAE7"/>
<path d="M826.635 406.429C826.416 406.374 826.197 406.21 826.142 405.936C823.732 398.04 816.829 391.789 807.736 389.266C802.258 387.731 796.889 388.005 794.753 389.924C794.479 390.199 794.04 390.144 793.767 389.869C793.493 389.595 793.547 389.157 793.821 388.882C796.396 386.579 801.984 386.25 808.064 387.95C817.596 390.637 824.828 397.217 827.402 405.552C827.512 405.936 827.293 406.32 826.964 406.429C826.854 406.484 826.745 406.484 826.635 406.429Z" fill="#F5EAE7"/>
<path d="M712.032 430.282C697.187 414.271 663.386 458.247 731.699 461.592C758.323 398.588 704.089 409.939 712.032 430.282Z" fill="#4E3658"/>
<path d="M698.008 439.275C696.694 440.097 694.941 439.714 694.119 438.398C693.297 437.082 693.681 435.327 694.995 434.504C696.31 433.682 698.063 434.066 698.885 435.382C699.707 436.698 699.323 438.452 698.008 439.275ZM695.379 435.053C694.338 435.711 694.064 437.027 694.667 438.069C695.324 439.11 696.639 439.385 697.68 438.781C698.721 438.123 698.995 436.807 698.392 435.766C697.735 434.669 696.365 434.395 695.379 435.053Z" fill="#F5EAE7"/>
<path d="M730.549 458.851C730.494 458.905 730.384 458.905 730.275 458.905C730.11 458.851 730.001 458.686 730.11 458.522C730.165 458.357 734.986 444.594 735.041 434.504C735.041 434.34 735.205 434.175 735.369 434.175C735.534 434.175 735.698 434.34 735.698 434.504C735.698 439.823 734.328 446.129 733.233 450.461C732.028 455.177 730.768 458.686 730.768 458.686C730.658 458.741 730.603 458.796 730.549 458.851Z" fill="#F5EAE7"/>
<path d="M708.965 454.19C708.91 454.245 708.8 454.245 708.746 454.245C702.939 452.929 699.542 451.009 697.735 449.638C695.708 448.103 695.05 446.897 695.05 446.842C694.996 446.677 695.05 446.513 695.16 446.403C695.324 446.348 695.489 446.403 695.598 446.513C695.598 446.513 696.201 447.664 698.173 449.09C699.981 450.406 703.268 452.271 708.91 453.587C709.074 453.641 709.184 453.806 709.129 453.97C709.074 454.08 709.02 454.135 708.965 454.19Z" fill="#F5EAE7"/>
<path d="M730.549 419.206C730.439 419.26 730.33 419.26 730.22 419.206C726.933 417.451 722.715 417.615 718.99 419.699C716.744 420.96 715.1 422.715 715.045 424.031C715.045 424.195 714.881 424.36 714.717 424.305C714.552 424.305 714.388 424.141 714.443 423.976C714.552 422.441 716.251 420.522 718.716 419.151C722.66 416.957 727.043 416.793 730.549 418.657C730.713 418.712 730.768 418.931 730.658 419.096C730.603 419.151 730.603 419.206 730.549 419.206Z" fill="#F5EAE7"/>
<path d="M772.511 389.76C772.183 387.018 768.786 389.76 766.595 392.392C766.595 392.392 758.925 410.816 752.845 421.015C750.38 425.018 747.969 428.089 746.654 428.363C744.354 428.856 747.367 415.532 745.668 411.968C743.97 408.403 743.696 406.484 741.834 407.471C739.971 408.458 734.986 425.621 732.028 431.653C729.07 437.685 731.261 444.32 732.082 448.432C732.904 452.545 724.249 460.167 723.756 462.195C721.893 469.817 748.298 490.599 748.9 489.887C749.503 489.174 755.474 479.852 768.95 468.227C785.494 453.916 783.468 421.728 783.468 421.18C783.468 414.983 783.413 408.184 783.139 406.429C782.865 404.51 781.66 404.784 780.345 405.936C780.29 401.494 780.235 397.491 780.016 396.23C779.742 394.421 778.702 394.53 777.551 395.463C777.496 391.844 777.442 388.828 777.277 387.786C776.839 384.934 774.374 387.128 772.511 389.76Z" fill="#FAC36A"/>
<path d="M763.637 421.015C763.582 421.015 763.472 421.015 763.418 420.96C763.034 420.851 762.87 420.412 762.979 420.083C763.034 419.919 769.991 400.836 771.744 390.637C771.799 390.253 772.183 390.034 772.566 390.089C772.95 390.144 773.169 390.528 773.114 390.911C771.306 401.22 764.349 420.412 764.239 420.577C764.185 420.851 763.965 421.015 763.637 421.015Z" fill="#4E3658"/>
<path d="M772.073 423.154C772.018 423.154 771.963 423.154 771.909 423.154C771.525 423.044 771.306 422.715 771.361 422.331C771.416 422.167 775.689 403.359 776.127 396.395C776.127 396.011 776.456 395.737 776.839 395.737C777.222 395.737 777.496 396.066 777.496 396.45C777.113 403.523 772.895 421.838 772.73 422.66C772.676 422.934 772.402 423.154 772.073 423.154Z" fill="#4E3658"/>
<path d="M778.373 427.047C778.099 427.047 777.825 426.882 777.716 426.608C777.606 426.334 777.606 426.334 778.044 423.099C778.702 418.438 779.907 409.774 779.633 406.045C779.578 405.662 779.907 405.333 780.29 405.278C780.674 405.278 781.003 405.552 781.057 405.936C781.331 409.829 780.126 418.548 779.469 423.263C779.25 424.634 779.085 425.95 779.085 426.224C779.14 426.499 778.976 426.828 778.647 426.937C778.537 426.992 778.428 427.047 778.373 427.047Z" fill="#4E3658"/>
<path d="M753.447 481.771C749.284 481.771 745.23 481.113 741.341 479.797C737.561 478.536 733.945 476.672 730.603 474.204C724.906 470.037 722.003 465.76 721.893 465.595C721.674 465.266 721.784 464.827 722.058 464.608C722.386 464.389 722.824 464.499 723.044 464.773C723.098 464.828 726.002 469.05 731.48 473.053C736.575 476.726 744.956 480.949 756.132 480.181C756.515 480.181 756.844 480.455 756.844 480.839C756.844 481.223 756.57 481.552 756.186 481.552C755.255 481.716 754.324 481.771 753.447 481.771Z" fill="#4E3658"/>
<path d="M747.202 508.366C747.147 508.366 747.038 508.366 746.983 508.311C746.6 508.201 746.435 507.763 746.545 507.434C746.6 507.269 753.173 489.448 754.707 485.281C754.817 484.897 755.255 484.732 755.584 484.842C755.967 484.952 756.132 485.39 756.022 485.719C754.488 489.887 747.914 507.708 747.86 507.872C747.75 508.201 747.476 508.366 747.202 508.366Z" fill="#4E3658"/>
<path d="M717.62 467.405C717.346 467.405 717.127 467.24 717.018 467.021C716.853 466.692 716.963 466.253 717.346 466.089L719.702 464.937C720.031 464.773 720.469 464.882 720.633 465.266C720.797 465.595 720.688 466.034 720.304 466.198L717.949 467.35C717.839 467.405 717.73 467.405 717.62 467.405Z" fill="#F5EAE7"/>
<path d="M755.036 373.693C754.927 373.693 754.762 373.639 754.653 373.584C743.751 366.401 742.601 366.401 723.208 367.004C721.181 367.059 718.935 367.168 716.415 367.168C716.032 367.168 715.703 366.949 715.703 366.565C715.703 366.181 715.977 365.907 716.36 365.907C718.825 365.852 721.126 365.797 723.153 365.688C741.395 365.085 743.915 365.03 753.502 371.171C752.845 369.745 752.133 368.539 751.53 367.442C748.407 361.849 746.819 359.053 754.379 341.78C754.543 341.451 754.927 341.287 755.31 341.396C755.639 341.561 755.803 341.945 755.693 342.328C748.407 358.998 749.777 361.411 752.79 366.73C753.721 368.375 754.707 370.184 755.748 372.706C755.858 372.981 755.748 373.31 755.529 373.474C755.365 373.639 755.2 373.693 755.036 373.693Z" fill="#4E3658"/>
<path d="M690.01 468.666C689.901 468.666 689.736 468.611 689.627 468.556C682.889 464.444 660.045 462.25 659.826 462.25C659.442 462.196 659.168 461.867 659.223 461.483C659.278 461.099 659.607 460.825 659.99 460.879C660.921 460.989 683.437 463.073 690.394 467.405C690.723 467.624 690.832 468.008 690.613 468.337C690.503 468.501 690.229 468.666 690.01 468.666Z" fill="#4E3658"/>
<path d="M666.564 474.259C666.399 474.259 666.235 474.204 666.071 474.04C665.797 473.765 665.797 473.327 666.071 473.053C666.728 472.395 671.384 471.133 675.274 470.366C678.67 469.708 684.916 468.721 688.805 469.653C689.188 469.763 689.408 470.092 689.298 470.475C689.188 470.859 688.86 471.079 688.476 470.969C685.792 470.311 681.3 470.585 675.767 471.627C671.165 472.504 667.495 473.656 667.002 473.985C666.892 474.204 666.728 474.259 666.564 474.259Z" fill="#4E3658"/>
<path d="M784.344 313.65C784.235 313.65 784.18 313.65 784.07 313.595C783.687 313.431 783.522 313.047 783.687 312.718C783.742 312.554 790.808 294.349 797.437 273.676C806.147 246.369 810.146 227.177 808.941 218.13C808.886 217.746 809.16 217.417 809.544 217.362C809.927 217.307 810.256 217.581 810.311 217.965C811.516 227.342 807.626 246.259 798.752 274.17C792.123 294.897 785.056 313.102 785.002 313.266C784.892 313.486 784.618 313.65 784.344 313.65Z" fill="#4E3658"/>
<path d="M684.587 322.204C684.587 322.204 684.532 322.204 684.587 322.204C683.765 322.204 682.834 321.875 682.505 320.998C682.396 320.614 682.396 320.285 682.396 320.011L682.505 313.541C682.505 313.157 682.834 312.883 683.217 312.883C683.601 312.883 683.929 313.212 683.875 313.595L683.765 320.066C683.765 320.285 683.765 320.45 683.82 320.614C683.875 320.834 684.203 320.998 684.532 320.998C684.97 320.998 685.463 320.834 685.902 320.614C686.23 320.45 686.669 320.614 686.833 320.998C686.997 321.327 686.833 321.656 686.449 321.821C685.956 322.04 685.299 322.204 684.587 322.204Z" fill="#F5EAE7"/>
<path d="M697.022 307.399C697.57 308.88 697.077 310.415 695.872 310.854C694.721 311.292 693.297 310.47 692.749 308.989C692.201 307.509 692.694 305.974 693.9 305.535C695.05 305.096 696.474 305.919 697.022 307.399Z" fill="#4E3658"/>
<path d="M674.124 315.021C674.671 316.502 674.178 318.037 672.973 318.476C671.823 318.914 670.398 318.092 669.851 316.611C669.303 315.131 669.796 313.595 671.001 313.157C672.151 312.773 673.576 313.595 674.124 315.021Z" fill="#4E3658"/>
<path d="M1141.3 700.285C1141.3 700.285 1144.48 695.678 1150.07 699.023C1155.65 702.368 1158.17 705.549 1158.17 705.549L1148.15 712.074L1141.3 700.285Z" fill="#FF8095"/>
<path d="M1207.86 707.303C1192.36 698.694 1167.87 700.888 1151.49 703.849C1083.83 426.06 1042.15 416.464 873.2 488.735C865.311 481.771 858.19 472.23 849.918 470.53C823.184 464.937 779.797 503.431 765.609 531.012C765.609 531.012 782.372 551.191 774.538 570.602C774.374 571.041 774.21 571.534 774.045 571.973C708.143 681.751 545.387 541.211 521.064 587.765C492.961 641.557 496.029 707.413 530.158 713.664C553.166 717.886 565.163 697.433 575.188 680.215C735.315 762.631 794.479 737.133 848.877 638.322C882.074 578.005 858.573 568.08 936.363 557.826C1058.14 541.76 1012.4 704.616 1095.72 796.957C1148.64 855.355 1231.31 720.299 1207.86 707.303Z" fill="#FF8095"/>
<path d="M831.182 506.995C830.963 506.995 830.799 506.885 830.635 506.721C830.416 506.447 830.416 506.008 830.744 505.734C830.909 505.569 835.236 501.95 842.687 497.947C849.534 494.219 860.381 489.503 873.145 488.022C873.529 487.967 873.857 488.242 873.912 488.625C873.967 489.009 873.693 489.338 873.31 489.393C860.765 490.874 850.082 495.535 843.399 499.154C836.113 503.102 831.73 506.776 831.675 506.776C831.511 506.94 831.347 506.995 831.182 506.995Z" fill="#F5EAE7"/>
<path d="M1103.12 762.85C1103.01 762.85 1102.73 762.85 1102.73 762.795C1102.73 762.741 1091.78 757.531 1086.19 756.325C1085.81 756.27 1085.59 755.886 1085.7 755.502C1085.75 755.119 1086.14 754.899 1086.52 754.954C1091.34 755.996 1099.72 759.834 1102.52 761.095C1102.73 759.56 1103.34 756.873 1104.6 753.912C1106.3 749.964 1109.58 744.371 1115.83 740.149C1115.55 738.01 1114.4 728.579 1114.79 718.818C1115.06 712.293 1115.94 706.865 1117.47 702.697C1119.39 697.378 1122.29 694.034 1126.18 692.827C1132.86 690.744 1140.21 691.895 1147.44 696.172C1152.81 699.352 1156.2 703.081 1156.31 703.246C1156.58 703.52 1156.53 703.958 1156.26 704.233C1155.98 704.507 1155.54 704.452 1155.27 704.178C1155.22 704.123 1151.87 700.394 1146.67 697.324C1139.77 693.266 1132.97 692.169 1126.56 694.143C1111.39 698.804 1117.2 739.984 1117.25 740.368C1117.31 740.642 1117.2 740.917 1116.92 741.026C1110.84 744.974 1107.61 750.293 1105.97 754.077C1104.16 758.189 1103.78 761.479 1103.72 761.973C1103.72 762.082 1103.72 762.137 1103.67 762.247C1103.72 762.631 1103.45 762.85 1103.12 762.85ZM1103.45 761.534C1103.5 761.589 1103.56 761.589 1103.61 761.644C1103.56 761.589 1103.5 761.534 1103.45 761.534Z" fill="#F5EAE7"/>
<path d="M1206.49 706.536C1206.49 706.536 1206.44 706.536 1206.44 706.481C1205.94 706.261 1205.45 705.987 1204.96 705.768C1196.58 704.452 1187.21 705.713 1181.4 707.797C1161.08 715.145 1136.04 738.614 1123.66 764.769C1116.59 779.739 1115.99 797.231 1117.03 810.336C1167.87 823.003 1228.29 718.599 1207.86 707.194C1207.64 707.084 1207.37 706.92 1207.15 706.81C1206.93 706.755 1206.71 706.645 1206.49 706.536Z" fill="#4E3658"/>
<path d="M1117.03 805.785C1116.7 805.785 1116.38 805.511 1116.32 805.182C1114.35 791.748 1116.65 777.82 1123.17 763.673C1128.81 751.554 1137.41 739.71 1148.15 729.456C1156.75 721.231 1166.06 714.541 1175.16 710.155C1184.36 705.713 1192.41 703.958 1198.55 705.165C1198.93 705.22 1199.15 705.604 1199.1 705.987C1199.04 706.371 1198.66 706.591 1198.27 706.536C1192.58 705.439 1184.58 707.139 1175.76 711.416C1166.77 715.748 1157.57 722.383 1149.08 730.498C1125.8 752.816 1114.07 780.671 1117.69 805.017C1117.74 805.401 1117.47 805.73 1117.09 805.785C1117.14 805.785 1117.09 805.785 1117.03 805.785Z" fill="#F5EAE7"/>
<path d="M1133.25 716.132C1133.08 716.132 1132.97 716.077 1132.86 716.022C1132.54 715.802 1132.48 715.364 1132.7 715.035C1132.75 714.925 1134.56 712.513 1137.74 709.826C1140.7 707.358 1145.46 704.178 1151.38 703.136C1151.76 703.081 1152.09 703.3 1152.2 703.684C1152.26 704.068 1152.04 704.397 1151.65 704.507C1140.86 706.371 1133.91 715.748 1133.85 715.857C1133.69 716.022 1133.47 716.132 1133.25 716.132Z" fill="#F5EAE7"/>
<path d="M1114.79 778.423C1114.62 778.423 1114.4 778.368 1114.29 778.204C1108.92 772.282 1095.07 775.023 1094.9 775.078C1094.52 775.133 1094.13 774.914 1094.08 774.53C1094.02 774.146 1094.24 773.762 1094.63 773.707C1095.23 773.598 1109.42 770.746 1115.33 777.272C1115.61 777.546 1115.55 777.984 1115.28 778.259C1115.12 778.368 1114.95 778.423 1114.79 778.423Z" fill="#F5EAE7"/>
<path d="M1126.35 752.103C1126.07 752.103 1125.85 751.938 1125.74 751.719C1122.4 745.084 1120.26 738.12 1119.33 730.937C1118.62 725.179 1118.73 719.312 1119.61 713.5C1121.14 703.575 1124.43 697.269 1124.54 696.995C1124.7 696.666 1125.14 696.501 1125.47 696.72C1125.8 696.885 1125.96 697.324 1125.74 697.653C1125.69 697.707 1122.4 704.068 1120.92 713.774C1119.55 722.712 1119.5 736.475 1126.89 751.061C1127.06 751.39 1126.95 751.829 1126.56 751.993C1126.56 752.103 1126.46 752.103 1126.35 752.103Z" fill="#F5EAE7"/>
<path d="M992.952 551.794C992.788 551.794 992.624 551.739 992.459 551.63C992.186 551.356 992.186 550.917 992.405 550.643L1033.55 506.117C1033.82 505.843 1034.26 505.843 1034.53 506.063C1034.81 506.337 1034.81 506.775 1034.59 507.05L993.446 551.575C993.336 551.685 993.172 551.794 992.952 551.794Z" fill="#F5EAE7"/>
<path d="M984.078 530.245C983.804 530.245 983.585 530.08 983.42 529.861C983.256 529.532 983.42 529.093 983.749 528.928L1016.34 514.068C1016.67 513.904 1017.11 514.068 1017.28 514.397C1017.44 514.726 1017.28 515.165 1016.95 515.33L984.352 530.19C984.297 530.244 984.187 530.245 984.078 530.245Z" fill="#F5EAE7"/>
<path d="M735.534 671.606C735.26 671.606 734.986 671.442 734.876 671.168L712.69 618.911C712.526 618.582 712.69 618.143 713.073 617.979C713.402 617.814 713.84 617.979 714.005 618.363L736.191 670.619C736.356 670.948 736.191 671.387 735.808 671.552C735.753 671.606 735.643 671.606 735.534 671.606Z" fill="#F5EAE7"/>
<path d="M712.252 651.592C712.033 651.592 711.868 651.482 711.704 651.318L687.271 621.324C687.052 621.05 687.052 620.611 687.381 620.337C687.655 620.117 688.093 620.117 688.367 620.446L712.8 650.44C713.019 650.715 713.019 651.153 712.69 651.428C712.526 651.537 712.416 651.592 712.252 651.592Z" fill="#F5EAE7"/>
<path d="M878.788 569.067C878.733 569.067 878.623 569.067 878.568 569.012C878.185 568.902 878.021 568.464 878.13 568.135C880.541 561.39 883.554 555.358 887.169 550.259C890.073 546.146 893.359 542.582 896.865 539.731C902.946 534.796 907.712 533.534 907.877 533.48C908.26 533.37 908.644 533.589 908.698 533.973C908.808 534.357 908.589 534.741 908.205 534.796C908.151 534.796 903.494 536.057 897.632 540.827C892.209 545.214 884.649 553.604 879.335 568.573C879.335 568.902 879.062 569.067 878.788 569.067Z" fill="#F5EAE7"/>
<path d="M576.174 679.886C575.791 679.886 575.517 679.612 575.462 679.338C575.353 678.79 575.791 678.516 576.065 678.351C576.284 678.241 576.558 678.077 576.941 677.858C579.954 676.267 587.952 672.045 587.569 667.22C587.24 663.601 581.926 660.037 572.175 656.966C560.123 653.182 551.632 653.621 546.702 654.663C541.333 655.814 538.758 657.843 538.758 657.843C538.539 658.008 538.265 658.062 538.046 657.953C537.663 657.788 537.663 657.679 537.334 655.814C537.17 654.937 536.896 653.402 536.622 651.318C536.129 647.918 535.417 642.544 535.033 636.239C534.321 625.327 534.266 609.863 538.375 598.293C540.676 591.768 544.018 587.107 548.345 584.311C553.33 581.076 559.685 580.417 567.19 582.227C567.574 582.337 567.793 582.721 567.683 583.05C567.574 583.433 567.19 583.653 566.861 583.543C557.877 581.35 550.701 582.94 545.661 588.314C541.991 592.207 539.306 598.184 537.718 605.97C536.458 612.331 535.91 619.898 536.074 628.507C536.348 641.612 538.211 652.908 538.868 656.143C540.073 655.376 542.538 654.114 546.428 653.292C551.577 652.195 560.342 651.702 572.723 655.595C578.201 657.35 582.365 659.214 585.104 661.188C587.569 662.998 588.938 664.972 589.103 667C589.596 672.703 580.995 677.254 577.763 678.954C577.434 679.119 577.106 679.283 576.941 679.393C576.667 679.777 576.448 679.886 576.174 679.886Z" fill="#F5EAE7"/>
<path d="M570.203 686.028C569.929 686.028 569.655 685.863 569.546 685.534C567.136 678.516 558.261 674.129 551.249 671.661C543.525 668.974 536.293 667.987 536.239 667.987C535.855 667.933 535.581 667.604 535.636 667.22C535.691 666.836 536.02 666.562 536.403 666.617C536.458 666.617 543.799 667.604 551.687 670.345C556.289 671.935 560.233 673.855 563.246 675.938C567.136 678.625 569.655 681.696 570.806 685.041C570.915 685.425 570.751 685.808 570.368 685.918C570.368 686.028 570.313 686.028 570.203 686.028Z" fill="#F5EAE7"/>
<path d="M563.027 694.417C562.698 694.417 562.424 694.198 562.369 693.869C561.657 690.195 556.453 686.357 547.304 682.792C540.292 680.051 533.39 678.461 533.335 678.461C532.952 678.351 532.733 678.022 532.787 677.638C532.897 677.254 533.226 677.035 533.609 677.09C533.664 677.09 540.621 678.735 547.743 681.476C557.439 685.26 562.808 689.373 563.684 693.595C563.739 693.979 563.52 694.362 563.136 694.417C563.082 694.417 563.082 694.417 563.027 694.417Z" fill="#F5EAE7"/>
<path d="M518.38 596.923C517.996 596.923 517.668 596.539 517.668 596.155C517.668 595.771 517.942 595.442 518.325 595.387C518.38 595.387 521.941 595.278 525.885 593.304C531.199 590.671 534.76 586.175 536.403 579.869C536.513 579.485 536.896 579.266 537.225 579.376C537.608 579.485 537.827 579.869 537.718 580.198C535.472 588.588 530.322 592.7 526.433 594.619C522.269 596.758 518.599 596.923 518.38 596.923C518.435 596.923 518.435 596.923 518.38 596.923Z" fill="#F5EAE7"/>
<path d="M511.97 689.866C511.916 689.866 511.916 689.866 511.861 689.866C511.477 689.811 511.258 689.427 511.313 689.044C511.368 688.769 512.518 682.518 517.503 675.445C520.407 671.332 524.077 667.768 528.295 664.917C533.609 661.407 539.854 658.94 546.921 657.679C547.305 657.624 547.633 657.843 547.743 658.227C547.798 658.611 547.578 658.94 547.195 659.049C531.692 661.846 523.146 669.907 518.709 676.212C513.888 683.012 512.737 689.263 512.737 689.318C512.573 689.647 512.299 689.866 511.97 689.866Z" fill="#F5EAE7"/>
<path d="M559.028 701.491C558.863 701.491 558.699 701.436 558.535 701.272C548.838 691.95 535.636 689.921 526.268 689.811C516.079 689.702 508.136 691.84 508.026 691.895C507.643 692.005 507.259 691.785 507.15 691.401C507.04 691.018 507.259 690.634 507.643 690.524C507.697 690.524 515.86 688.276 526.268 688.386C532.349 688.44 538.046 689.263 543.141 690.853C549.55 692.827 555.029 696.008 559.466 700.23C559.74 700.504 559.74 700.943 559.466 701.217C559.411 701.436 559.192 701.491 559.028 701.491Z" fill="#F5EAE7"/>
<path d="M1151.82 725.837C1151.49 725.837 1151.22 725.618 1151.16 725.289C1151.11 725.124 1150.12 720.628 1151.27 715.474C1152.37 710.703 1155.65 704.452 1165.02 701.984C1165.4 701.875 1165.79 702.094 1165.84 702.478C1165.95 702.862 1165.73 703.246 1165.35 703.3C1158.34 705.165 1154.06 709.332 1152.59 715.748C1151.49 720.573 1152.48 724.905 1152.48 724.905C1152.59 725.289 1152.31 725.673 1151.98 725.728C1151.93 725.837 1151.87 725.837 1151.82 725.837Z" fill="#F5EAE7"/>
<path d="M570.112 201.07C551.633 174.43 492.774 232.057 592.493 251.217C644.764 164.077 562.603 169.53 570.112 201.07Z" fill="#FAC36A"/>
<path d="M547.584 211.387C545.486 212.345 542.983 211.387 542.063 209.286C541.106 207.186 542.063 204.681 544.161 203.76C546.259 202.802 548.762 203.76 549.682 205.86C550.639 207.96 549.682 210.465 547.584 211.387ZM544.566 204.607C542.946 205.344 542.21 207.26 542.909 208.918C543.646 210.539 545.56 211.276 547.216 210.576C548.836 209.839 549.572 207.923 548.873 206.265C548.136 204.607 546.185 203.87 544.566 204.607Z" fill="#F5EAE7"/>
<path d="M591.389 246.979C591.278 247.053 591.131 247.053 590.984 246.979C590.763 246.869 590.652 246.574 590.8 246.353C590.91 246.169 600.886 226.899 603.021 212.05C603.058 211.792 603.278 211.608 603.536 211.644C603.794 211.681 603.978 211.902 603.941 212.16C602.837 220.008 599.524 228.999 596.984 235.152C594.223 241.821 591.683 246.721 591.646 246.758C591.573 246.869 591.462 246.906 591.389 246.979Z" fill="#F5EAE7"/>
<path d="M560.579 235.557C560.468 235.594 560.358 235.631 560.21 235.557C551.965 232.425 547.364 228.851 544.934 226.456C542.284 223.804 541.584 221.888 541.548 221.814C541.474 221.556 541.584 221.298 541.842 221.224C542.1 221.151 542.357 221.261 542.431 221.519C542.431 221.556 543.094 223.361 545.633 225.867C547.989 228.188 552.48 231.615 560.505 234.71C560.763 234.783 560.873 235.078 560.763 235.299C560.763 235.447 560.689 235.52 560.579 235.557Z" fill="#F5EAE7"/>
<path d="M599.597 188.653C599.45 188.727 599.266 188.69 599.119 188.616C594.665 185.337 588.444 184.747 582.517 186.995C578.947 188.358 576.186 190.642 575.781 192.558C575.744 192.816 575.487 192.964 575.229 192.927C574.971 192.89 574.824 192.632 574.861 192.374C575.339 190.127 578.211 187.658 582.186 186.147C588.407 183.752 594.922 184.416 599.671 187.879C599.892 188.026 599.929 188.321 599.781 188.542C599.745 188.579 599.671 188.616 599.597 188.653Z" fill="#F5EAE7"/>
<path d="M1048.84 273.518C1048.73 233.215 947.825 250.598 1036.41 340.69C1151.39 288.378 1063.41 235.902 1048.84 273.518Z" fill="#FF8095"/>
<path d="M1006.33 287.008C1006.11 286.953 1005.95 286.788 1005.89 286.569C1002.77 274.67 1008.74 266.993 1012.58 263.484C1015.75 260.578 1019.42 258.713 1020.47 259.097C1020.79 259.207 1020.9 259.536 1020.79 259.865C1020.68 260.139 1020.41 260.303 1020.08 260.249C1019.37 260.249 1014.82 262.223 1011.04 266.774C1007.87 270.612 1004.58 277.083 1006.99 286.295C1007.04 286.624 1006.88 286.898 1006.55 287.008C1006.5 287.008 1006.44 287.008 1006.33 287.008Z" fill="#4E3658"/>
<path d="M1039.58 334.658C1039.42 334.603 1039.26 334.494 1039.2 334.329C1039.04 334.055 1039.15 333.671 1039.47 333.562C1039.69 333.452 1058.98 323.472 1065.44 319.031C1065.71 318.866 1066.04 318.921 1066.26 319.195C1066.43 319.469 1066.37 319.798 1066.1 320.018C1059.58 324.514 1040.19 334.494 1039.97 334.603C1039.86 334.658 1039.69 334.658 1039.58 334.658Z" fill="#4E3658"/>
<path d="M1052.51 276.863C1052.46 276.863 1052.35 276.808 1052.29 276.754C1052.02 276.589 1051.96 276.205 1052.13 275.931C1052.24 275.821 1054.38 272.751 1057.66 269.79C1062.15 265.732 1066.37 263.868 1070.21 264.197C1070.54 264.197 1070.75 264.526 1070.75 264.8C1070.7 265.129 1070.43 265.348 1070.15 265.348C1061.72 264.635 1053.22 276.479 1053.12 276.589C1052.95 276.808 1052.73 276.918 1052.51 276.863Z" fill="#4E3658"/>
<path d="M1083.68 277.028C1082.37 276.808 1081.49 275.492 1081.77 274.176C1081.98 272.86 1083.3 271.983 1084.61 272.257C1085.93 272.477 1086.81 273.793 1086.53 275.109C1086.26 276.37 1085 277.247 1083.68 277.028ZM1084.34 273.409C1083.68 273.299 1082.97 273.738 1082.86 274.396C1082.75 275.054 1083.19 275.767 1083.85 275.876C1084.5 275.986 1085.22 275.547 1085.33 274.889C1085.49 274.176 1085 273.518 1084.34 273.409Z" fill="#4E3658"/>
<path d="M665.139 82.1961C666.783 62.6203 617.041 66.7877 656.265 114.274C714.333 93.766 673.85 64.5944 665.139 82.1961Z" fill="#4E3658"/>
<path d="M1053.21 52.805C1060.61 34.6002 1011.85 23.7979 1035.19 80.8252C1096.71 78.4673 1066.69 38.5482 1053.21 52.805Z" fill="#FF8095"/>
<path d="M901.851 880.25C907.767 847.404 823.13 846.417 881.636 933.055C983.037 907.722 919.326 851.846 901.851 880.25Z" fill="#4E3658"/>
<path d="M1148.6 142.502C1142.35 123.858 1098.36 147.492 1153.2 175.457C1198.29 133.564 1149.53 122.871 1148.6 142.502Z" fill="#4E3658"/>
<path d="M703.079 859.536C688.024 828.017 615.484 879.041 718.224 916.716C788.865 833.205 700.573 824.693 703.079 859.536Z" fill="#FAC36A"/>
<path d="M700.693 593.633C698.611 593.633 696.42 593.578 694.229 593.468C680.643 592.755 664.866 589.849 647.39 584.914C617.699 576.415 592.937 564.68 592.718 564.571C592.39 564.406 592.225 563.967 592.39 563.638C592.554 563.309 592.992 563.145 593.321 563.309C593.54 563.419 618.192 575.153 647.774 583.598C665.14 588.533 680.807 591.439 694.283 592.097C711.101 592.975 724.578 590.507 734.383 584.695C734.712 584.475 735.15 584.585 735.315 584.914C735.534 585.243 735.424 585.682 735.096 585.846C726.331 591.055 714.772 593.633 700.693 593.633Z" fill="#FAC36A"/>
<path d="M1121.14 839.124C1105.91 839.124 1091.61 834.902 1078.52 826.458C1064.44 817.41 1051.68 803.537 1040.56 785.222C1030.7 768.992 1023.96 752.158 1020.07 740.917C1015.85 728.743 1013.93 720.244 1013.93 720.189C1013.82 719.805 1014.1 719.422 1014.48 719.367C1014.86 719.257 1015.25 719.531 1015.3 719.915C1015.3 720.025 1017.22 728.414 1021.44 740.533C1025.33 751.719 1031.96 768.443 1041.76 784.564C1059.02 812.968 1089.59 844.991 1136.97 836.273C1137.36 836.218 1137.69 836.437 1137.79 836.821C1137.85 837.205 1137.63 837.534 1137.25 837.644C1131.77 838.631 1126.4 839.124 1121.14 839.124Z" fill="#FAC36A"/>
<path d="M469.241 391.953C469.022 391.953 468.803 391.844 468.638 391.624C457.791 373.639 460.585 352.253 464.803 337.503C467.871 326.756 472.856 315.624 478.882 306.083C484.141 297.694 489.565 291.552 493.345 289.633C493.673 289.468 494.112 289.578 494.276 289.962C494.44 290.291 494.331 290.73 493.947 290.894C487.1 294.349 472.911 314.418 466.118 337.942C461.955 352.418 459.216 373.419 469.789 390.966C470.008 391.295 469.898 391.734 469.569 391.898C469.515 391.953 469.405 391.953 469.241 391.953Z" fill="#FAC36A"/>
<path d="M739.971 756.489C738.711 756.489 737.506 756.489 736.246 756.435C721.948 756.106 709.513 753.803 701.569 751.993C692.969 750.019 687.655 748.045 687.6 748.045C687.217 747.935 687.052 747.497 687.217 747.168C687.326 746.784 687.764 746.619 688.093 746.784C688.312 746.839 709.184 754.461 736.301 755.119C761.281 755.722 796.78 750.348 824.116 721.396C824.39 721.122 824.828 721.122 825.102 721.396C825.376 721.67 825.376 722.108 825.102 722.383C812.831 735.323 797.985 744.755 780.948 750.348C768.458 754.406 754.653 756.489 739.971 756.489Z" fill="#FAC36A"/>
<path d="M801.381 769.924C801.107 769.924 800.888 769.759 800.779 769.54C800.614 769.211 800.724 768.772 801.107 768.608C801.217 768.553 814.2 761.918 829.868 748.813C844.275 736.749 863.997 716.625 875.939 689.208C876.103 688.879 876.487 688.715 876.87 688.824C877.199 688.989 877.363 689.373 877.254 689.756C871.94 701.984 864.599 713.829 855.56 724.905C848.329 733.788 840.002 742.178 830.744 749.909C814.967 763.07 801.929 769.759 801.765 769.814C801.601 769.869 801.491 769.924 801.381 769.924Z" fill="#FAC36A"/>
<path d="M407.885 311.183C399.175 311.183 392.108 304.109 392.108 295.391C392.108 286.672 399.175 279.598 407.885 279.598C416.596 279.598 423.663 286.672 423.663 295.391C423.663 304.109 416.596 311.183 407.885 311.183ZM407.885 280.969C399.942 280.969 393.478 287.44 393.478 295.391C393.478 303.341 399.942 309.812 407.885 309.812C415.829 309.812 422.293 303.341 422.293 295.391C422.293 287.44 415.829 280.969 407.885 280.969Z" fill="#FAC36A"/>
<path d="M396.984 296.103C396.6 296.103 396.272 295.774 396.272 295.391C396.272 289.03 401.476 283.821 407.831 283.821C408.214 283.821 408.543 284.15 408.543 284.533C408.543 284.917 408.214 285.246 407.831 285.246C402.243 285.246 397.641 289.798 397.641 295.445C397.696 295.774 397.367 296.103 396.984 296.103Z" fill="#FAC36A"/>
<path d="M407.886 306.961C407.502 306.961 407.173 306.632 407.173 306.248C407.173 305.864 407.502 305.535 407.886 305.535C413.473 305.535 418.075 300.984 418.075 295.336C418.075 294.952 418.404 294.623 418.787 294.623C419.17 294.623 419.499 294.952 419.499 295.336C419.444 301.751 414.24 306.961 407.886 306.961Z" fill="#FAC36A"/>
<path d="M894.51 110.49C876.98 110.49 862.682 96.1787 862.682 78.6319C862.682 61.085 876.98 46.7733 894.51 46.7733C912.04 46.7733 926.338 61.085 926.338 78.6319C926.338 96.1787 912.095 110.49 894.51 110.49ZM894.51 49.5698C878.514 49.5698 865.476 62.6203 865.476 78.6319C865.476 94.6434 878.514 107.694 894.51 107.694C910.506 107.694 923.544 94.6434 923.544 78.6319C923.544 62.6203 910.506 49.5698 894.51 49.5698Z" fill="#FAC36A"/>
<path d="M872.597 80.0575C871.83 80.0575 871.173 79.4544 871.173 78.6318C871.173 65.7459 881.636 55.2726 894.51 55.2726C895.277 55.2726 895.934 55.8758 895.934 56.6983C895.934 57.5208 895.331 58.1239 894.51 58.1239C883.17 58.1239 873.967 67.3361 873.967 78.6867C873.967 79.3995 873.364 80.0575 872.597 80.0575Z" fill="#FAC36A"/>
<path d="M894.51 101.991C893.743 101.991 893.085 101.388 893.085 100.565C893.085 99.7429 893.688 99.1398 894.51 99.1398C905.85 99.1398 915.053 89.9277 915.053 78.577C915.053 77.8093 915.656 77.1513 916.477 77.1513C917.244 77.1513 917.902 77.7545 917.902 78.577C917.847 91.5178 907.384 101.991 894.51 101.991Z" fill="#FAC36A"/>
</svg>
